<svg width="12" height="11" viewBox="0 0 12 11" fill="none" xmlns="http://www.w3.org/2000/svg">
<path fill-rule="evenodd" clip-rule="evenodd" d="M0.666656 11V2.33333C0.666656 1.8029 0.87737 1.29419 1.25244 0.919119C1.62752 0.544046 2.13622 0.333332 2.66666 0.333332H9.33332C9.86376 0.333332 10.3725 0.544046 10.7475 0.919119C11.1226 1.29419 11.3333 1.8029 11.3333 2.33333V6.33333C11.3333 6.86377 11.1226 7.37247 10.7475 7.74755C10.3725 8.12262 9.86376 8.33333 9.33332 8.33333H3.33332L0.666656 11ZM2.83332 3C2.83332 2.72386 3.05717 2.5 3.33332 2.5H8.66665C8.94279 2.5 9.16665 2.72386 9.16665 3C9.16665 3.27614 8.94279 3.5 8.66665 3.5H3.33332C3.05717 3.5 2.83332 3.27614 2.83332 3ZM3.33332 5.16667C3.05717 5.16667 2.83332 5.39052 2.83332 5.66667C2.83332 5.94281 3.05717 6.16667 3.33332 6.16667H7.33332C7.60946 6.16667 7.83332 5.94281 7.83332 5.66667C7.83332 5.39052 7.60946 5.16667 7.33332 5.16667H3.33332Z" fill="#FF6861"/>
</svg>
