<svg width="16" height="16" viewBox="0 0 16 16" fill="none" xmlns="http://www.w3.org/2000/svg">
<path d="M1.58667 10.6667V7.19883C1.58667 6.2655 1.98667 5.93216 2.92 5.93216H3.58667C4.52 5.93216 4.92 6.2655 4.92 7.19883V10.6667C4.92 11.6 4.52 11.9333 3.58667 11.9333H2.92C1.98667 11.9333 1.58667 11.6 1.58667 10.6667Z" fill="#FF6861"/>
<path d="M7.5 13C7.72633 13.2567 9.15626 14 9.49575 14H11.6459C12.3248 14 13.0604 13.4225 13.2301 12.6526L14.5881 7.96857C14.871 7.07027 14.3618 6.3003 13.513 6.3003H11.2498C10.9103 6.3003 10.6274 5.97948 10.684 5.53033L10.9669 3.47707C11.08 2.89959 10.7405 2.25795 10.2313 2.06546C9.77866 1.87297 9.21284 2.12962 8.98652 2.51461L6.27059 5.664C6.11672 5.84243 5.97174 6.03106 5.87951 6.24786C5.73953 6.57688 5.66667 6.93186 5.66667 7.29182V11C5.66667 11.7674 6.9233 12.4937 7.5 13Z" fill="#FF6861"/>
</svg>
